<svg width="553" height="408" viewBox="0 0 553 408" fill="none" xmlns="http://www.w3.org/2000/svg">
<path d="M213.711 3.82113C220.306 -1.75013 226.053 -1.08387 232.109 4.87242C245.825 18.3623 258.971 32.4008 272.605 45.9855L383.045 157.11L483.701 55.7605L511.848 27.5597C520.07 19.3104 538.75 -3.28474 549.722 10.2065C554.645 16.2604 552.52 60.7432 552.499 71.0923L552.293 168.52C553.325 216.983 552.5 267.742 552.403 316.355L552.486 365.016C552.52 373.763 552.809 382.543 552.273 391.289C551.84 398.343 547.811 402.271 540.791 402.923C533.05 403.643 525.288 403.343 517.506 403.288L483.344 403.123C474.874 403.011 470.797 398.805 466.851 391.566C463.503 374.885 467.861 340.783 466.122 325.397C464.197 308.409 468.466 194.302 465.785 189.036C463.75 189.425 462.905 190.676 461.117 192.204C452.125 203.171 433.583 220.313 423.146 231.293C415.357 239.486 398.245 257.918 390.401 264.834C385.96 268.078 380.865 268.987 376.451 265.064C348.566 240.279 323.961 209.349 296.021 184.868L295.89 231.881C293.03 228.68 272.288 208.064 271.841 206.119C271.635 205.447 271.381 203.304 271.388 202.497C271.505 186.053 270.556 168.746 271.938 152.443C272.11 150.441 273.271 148.722 274.502 147.309C278.476 142.935 281.494 142.855 287.111 143.087C288.96 143.779 290.906 144.657 292.343 146.056C322.441 175.364 351.227 206.467 381.381 235.699C411.315 207.928 439.014 176.547 468.57 148.301C470.57 146.393 473.485 144.247 476.104 143.321C480.408 142.741 482.863 142.678 487.111 143.817C488.143 144.744 489.916 146.159 490.528 147.3C494.86 152.732 493.753 173.786 493.808 181.666L493.897 231.07L493.876 375.851L523.728 375.929C525.22 371.153 523.989 315.517 523.996 305.749C523.631 220.761 523.748 135.771 524.34 50.7847L481.02 94.2808C473.485 101.854 464.142 111.714 456.291 118.631C446.845 130.311 430.991 143.736 420.39 155.015C414.656 161.114 398.644 178.427 392.415 182.932C387.307 188.448 381.023 189.888 375.145 184.724C368.8 179.144 363.162 173.267 357.229 167.279L328.663 138.427L240.973 49.6598L234.334 44.2556C234.276 50.084 234.425 57.7145 234.074 63.3924L234.451 134.887C234.516 145.943 235.127 163.538 234.259 174.046C234.549 176.771 234.601 180.749 234.727 183.58C229.283 180.169 211.974 172.509 210.052 168.227C210.546 165.24 210.157 155.869 210.083 152.339C209.38 141.693 208.321 137.723 204.918 127.674C202.505 121.799 200.474 117.438 196.59 112.378C176.618 86.3567 138.494 75.1963 107.97 87.9223C99.9747 91.2563 90.822 96.7519 87.3604 105.008C85.4485 109.524 85.4663 114.626 87.4099 119.128C93.2818 132.44 120.124 139.363 131.755 147.999C131.237 147.891 130.723 147.76 130.216 147.606C128.702 147.153 122.382 144.151 120.945 143.263C103.833 132.682 74.9132 128.34 83.1969 102.132C85.7173 100.214 85.9992 95.975 87.467 93.8862C90.4267 89.6769 96.7757 86.4647 101.19 83.9998C101.403 83.6278 101.747 82.4501 101.703 82.4239C96.7524 79.5052 91.24 72.6702 89.7591 66.8625C97.0507 62.7454 108.122 58.6977 116.473 58.2364L116.962 58.167C136.257 53.0474 166.953 59.5063 183.757 69.8306C184.644 70.3752 187.666 72.0941 188.226 72.8284C194.822 75.5992 204.073 83.9558 209.536 88.7749C210.755 64.3295 208.62 39.0302 209.654 14.5264C209.818 10.663 210.663 6.42628 213.711 3.82113ZM551.434 392.461C552.101 385.35 552.637 340.187 550.643 336.484C550.279 342.684 549.667 388.995 551.063 392.117L551.434 392.461Z" fill="#34583E"/>
<path d="M213.711 3.821C218.007 5.49313 222.091 1.0859 227.353 3.95988C229.929 5.36662 316.433 91.5593 322.655 99.3425L322.029 98.9884C309.702 91.8749 292.439 67.9356 280.648 58.4267C276.764 55.2894 270.886 46.2831 265.592 46.9871C262.636 50.3039 262.581 50.6092 258.242 51.6096C256.73 53.3374 255.624 53.873 255.735 55.627C262.086 64.5129 302.036 100.011 303.308 105.603C280.951 84.9017 259.109 59.9098 236.364 38.885C237.923 43.944 241.042 45.6113 240.973 49.6597L234.334 44.2555C234.276 50.0839 234.425 57.7144 234.074 63.3922L234.451 134.887C234.516 145.943 235.127 163.537 234.259 174.046C234.549 176.771 234.601 180.749 234.727 183.58C229.283 180.169 211.974 172.509 210.052 168.227C210.546 165.24 210.157 155.869 210.083 152.339C209.38 141.693 208.321 137.723 204.918 127.674C202.505 121.799 200.474 117.438 196.59 112.378C176.618 86.3566 138.494 75.1962 107.97 87.9221C99.9747 91.2561 90.822 96.7517 87.3604 105.008C85.4485 109.524 85.4663 114.625 87.4099 119.128C93.2818 132.44 120.124 139.363 131.755 147.999C131.237 147.891 130.723 147.759 130.216 147.605C128.702 147.152 122.382 144.151 120.945 143.263C103.833 132.682 74.9132 128.339 83.1969 102.132C85.7173 100.214 85.9992 95.9748 87.467 93.886C90.4267 89.6768 96.7757 86.4645 101.19 83.9996C101.403 83.6277 101.747 82.4499 101.703 82.4238C96.7524 79.5051 91.24 72.6701 89.7591 66.8623C97.0507 62.7452 108.122 58.6976 116.473 58.2362L116.962 58.1668C136.257 53.0473 166.953 59.5062 183.757 69.8305C184.644 70.375 187.666 72.0939 188.226 72.8282C194.822 75.5991 204.073 83.9557 209.536 88.7747C210.755 64.3294 208.62 39.0301 209.654 14.5262C209.818 10.6629 210.663 6.42614 213.711 3.821Z" fill="#4C6F55"/>
<path d="M101.19 83.9996C124.118 75.5839 145.906 75.0696 168.265 85.7501C182.748 92.6676 198.068 104.393 204.781 119.458C206.121 122.468 206.361 124.722 204.918 127.674C202.505 121.799 200.474 117.438 196.59 112.378C176.618 86.3566 138.494 75.1962 107.97 87.9221C99.9747 91.2561 90.822 96.7517 87.3604 105.008C85.4485 109.524 85.4663 114.625 87.4099 119.128C93.2818 132.44 120.124 139.363 131.755 147.999C131.237 147.891 130.723 147.759 130.216 147.605C128.702 147.152 122.382 144.151 120.945 143.263C103.833 132.682 74.9132 128.339 83.1969 102.132C85.7173 100.214 85.9992 95.9748 87.467 93.886C90.4267 89.6768 96.7757 86.4645 101.19 83.9996Z" fill="#0F2817"/>
<path d="M210.083 152.339L210.544 151.927C212.259 150.37 212.612 150.018 213.127 147.658C216.002 145.776 227.56 149.912 231.337 151.048C231.363 159.777 231.228 169.059 231.433 177.741L232.833 178.931C233.99 177.778 233.92 175.978 234.259 174.046C234.549 176.771 234.601 180.749 234.727 183.58C229.283 180.169 211.974 172.509 210.052 168.228C210.546 165.24 210.157 155.869 210.083 152.339Z" fill="#2F5139"/>
<path d="M210.052 168.227C210.778 168.109 211.698 167.959 212.811 167.777C218.435 169.774 226.578 174.876 231.433 177.74L232.833 178.931C233.99 177.778 233.92 175.978 234.259 174.046C234.549 176.771 234.601 180.749 234.727 183.58C229.283 180.169 211.974 172.509 210.052 168.227Z" fill="#132E1A"/>
<path d="M231.337 151.048C231.415 140.254 231.309 128.608 231.953 117.911C233.154 122.327 233.426 171.001 232.833 178.931L231.433 177.74C231.228 169.059 231.363 159.777 231.337 151.048Z" fill="#597A61"/>
<path d="M231.905 34.2681C233.419 35.6659 234.942 37.371 236.364 38.885C237.923 43.944 241.042 45.6114 240.973 49.6597L234.334 44.2555C234.276 50.0839 234.425 57.7144 234.074 63.3922C232.761 59.1122 232.91 41.2688 231.905 34.2681Z" fill="#091D0E"/>
<path d="M211.056 95.4187C205.363 87.9732 195.382 80.3042 187.847 74.7968C186.749 73.9945 187.038 74.2564 186.924 72.9356L188.226 72.8284C194.841 79.2467 207.634 85.6444 211.786 95.55L211.056 95.4187Z" fill="#86A08A"/>
<path d="M116.473 58.2364L116.962 58.167C119.304 58.2289 120.73 58.1257 122.942 59.0147C121.255 60.8471 108.449 61.8261 105.519 61.8543C107.611 60.9193 113.271 59.5208 116.473 58.2364Z" fill="#597A61"/>
<path d="M456.291 118.631C458.374 114.353 472.626 101.056 476.703 96.6866C493.821 78.3309 514.694 60.0185 531.001 41.2737C528.932 53.9866 530.121 68.6116 529.702 81.572C529.166 98.0713 529.193 113.82 529.248 130.287L529.324 274.664C529.578 294.932 529.558 315.204 529.262 335.472C529.138 343.833 528.526 372.45 529.406 379.612C526.333 379.43 525.921 379.934 523.927 378.37L523.728 375.928C525.219 371.153 523.989 315.517 523.996 305.749C523.631 220.761 523.748 135.771 524.34 50.7846L481.02 94.2808C473.485 101.854 464.142 111.714 456.291 118.631Z" fill="#132E1A"/>
<path d="M213.711 3.82113C220.306 -1.75013 226.053 -1.08387 232.109 4.87242C245.825 18.3623 258.971 32.4008 272.605 45.9855L383.044 157.11L483.701 55.7605L511.848 27.5597C520.07 19.3104 538.75 -3.28474 549.722 10.2065C554.645 16.2604 552.52 60.7432 552.499 71.0923L552.293 168.52C549.756 183.065 553.228 207.712 551.86 223.131C551.09 231.875 552.843 242.085 551.131 251.026C549.653 246.105 550.32 215.54 550.327 208.239L550.348 78.9187L550.629 38.6837C550.678 32.2887 553.056 7.5807 541.444 8.20844C534.061 8.60722 521.926 22.9056 516.158 28.6887L487.703 57.1452L383.856 161.1C366.118 142.596 341.327 116.508 322.655 99.3426C316.433 91.5595 229.929 5.36676 227.353 3.96002C222.091 1.08603 218.007 5.49327 213.711 3.82113Z" fill="#86A08A"/>
<path d="M236.364 38.885C259.109 59.9098 280.951 84.9017 303.308 105.603C309.695 112.88 317.196 120.042 324.071 126.97C342.358 145.409 360.522 164.046 379.119 182.156C383.031 185.96 387.74 184.061 392.415 182.931C387.307 188.448 381.023 189.888 375.145 184.724C368.8 179.144 363.162 173.266 357.229 167.279L328.663 138.427L240.973 49.6597C241.042 45.6114 237.923 43.944 236.364 38.885Z" fill="#132E1A"/>
<path d="M461.117 192.204C462.932 188.644 467.965 183.385 470.852 180.439C470.79 185.887 470.116 212.672 470.776 217.262C470.398 257.233 470.378 297.206 470.728 337.177C470.735 349.735 471.622 380.191 470.412 391.115C470.048 392.205 469.835 392.591 470.158 393.751L466.851 391.566C463.503 374.885 467.861 340.783 466.122 325.397C464.197 308.409 468.466 194.302 465.785 189.036C463.75 189.426 462.905 190.676 461.117 192.204Z" fill="#1D3923"/>
<path d="M293.841 178.072C298.083 179.866 356.486 241.314 364.626 248.887C368.387 252.39 375.661 260.772 380.741 263.853C382.481 264.907 388.235 264.835 390.401 264.834C385.96 268.078 380.865 268.987 376.451 265.063C348.566 240.279 323.961 209.349 296.021 184.868L295.89 231.881C293.03 228.68 272.288 208.064 271.841 206.119C277.094 206.229 289.139 219.789 293.401 224.137C293.236 215.708 291.978 184.351 293.841 178.072Z" fill="#091D0E"/>
<path d="M293.841 178.072C294.838 187.893 295.168 214.884 294.412 224.749L293.793 225.488L293.401 224.137C293.236 215.708 291.978 184.351 293.841 178.072Z" fill="#597A61"/>
<path d="M287.111 143.087C288.96 143.779 290.906 144.657 292.343 146.056C322.441 175.364 351.227 206.467 381.381 235.699C411.315 207.928 439.014 176.547 468.57 148.301C470.57 146.393 473.485 144.247 476.105 143.321C473.712 149.264 393.501 228.452 383.065 238.764L328.079 184.043C315.147 170.935 300.696 155.206 287.111 143.087Z" fill="#132E1A"/>
<path d="M476.105 143.321C480.408 142.741 482.863 142.678 487.111 143.817L487.469 145.803C484.306 146.463 480.876 143.246 477.321 146.304C469.793 152.788 461.585 162.112 454.51 169.225C438.313 185.313 422.273 201.552 406.378 217.94C400.755 223.646 387.479 236.298 383.093 241.685C366.331 223.21 347.755 205.929 329.97 188.462C316.33 175.071 303.831 160.207 289.558 147.36C282.718 141.199 278.868 149.724 274.502 147.309C278.476 142.935 281.494 142.855 287.111 143.087C300.696 155.206 315.147 170.935 328.079 184.043L383.065 238.764C393.501 228.452 473.712 149.264 476.105 143.321Z" fill="#597A61"/>
<path d="M490.528 147.3C494.86 152.732 493.753 173.786 493.808 181.666L493.897 231.07L493.876 375.851L523.728 375.928L523.927 378.37C525.921 379.934 526.333 379.429 529.406 379.612L530.087 378.586L530.334 380.754C524.168 380.027 499.968 380.543 492.549 380.508L492.536 229.219L492.577 182.953C492.584 175.676 493.794 153.868 490.068 148.46L490.528 147.3Z" fill="#2F5139"/>
<path d="M491.257 382.43L491.236 233.486L491.298 182.376C491.305 174.836 492.302 154.595 489.634 148.795L489.346 148.187L490.068 148.46C493.794 153.868 492.584 175.676 492.577 182.953L492.536 229.219L492.549 380.508C499.968 380.543 524.168 380.027 530.334 380.754L530.053 382.037C527.275 383.054 496.771 382.457 491.257 382.43Z" fill="#86A08A"/>
<path d="M470.776 217.262C471.911 220.49 472.75 389.09 471.491 391.836L470.412 391.114C471.622 380.19 470.735 349.735 470.728 337.177C470.378 297.206 470.398 257.233 470.776 217.262Z" fill="#2F5139"/>
<path d="M550.643 336.484C552.637 340.187 552.101 385.35 551.434 392.461L551.063 392.117C549.667 388.995 550.279 342.685 550.643 336.484Z" fill="#86A08A" fill-opacity="0.988235"/>
<path d="M38.242 34.4021C37.7821 35.4809 37.1963 37.0203 36.5569 37.9341C39.2856 38.0152 40.1244 36.6518 43.2346 39.5258C52.3571 47.9552 48.7945 46.5883 58.744 43.9777C52.5936 48.7438 47.2462 53.1648 41.9566 58.9238C42.631 60.8001 42.5506 61.2594 41.9524 63.1523L42.7871 64.8608C45.9688 65.4927 47.8883 60.4777 50.6094 60.2522L50.9525 60.5327C35.6116 78.0983 27.4496 95.5692 29.1979 119.223C31.6723 152.7 52.5633 168.039 79.9073 182.228C90.6288 187.156 101.829 193.257 112.423 198.661L163.148 224.356C182.007 233.983 209.378 245.683 225.55 258.331C260.91 285.985 241.613 333.916 202.241 346.284C144.409 364.454 85.4856 342.098 60.7838 285.104C58.7845 285.124 53.1724 285.303 51.4688 285.041C44.9032 285.226 38.3362 285.329 31.7678 285.349C42.1292 320.566 61.903 344.501 94.3633 362.246C128.72 380.624 168.893 384.86 206.326 374.052C230.9 366.833 255.343 351.205 267.826 328.254C269.985 324.342 271.78 320.24 273.182 315.999C278.627 299.179 277.115 287.258 271.972 270.752C256.967 235.123 227.188 224.095 194.836 207.511L137.101 178.039C133.198 176.006 113.293 166.416 111.062 164.457C103.252 161.371 76.7159 147.776 71.8683 141.759C68.547 138.653 65.7193 135.06 63.4829 131.1C58.3225 121.803 57.2968 109.812 60.4235 99.7474C65.3715 83.8195 75.8675 74.6042 89.7591 66.8623C91.24 72.6701 96.7524 79.5051 101.703 82.4238C101.747 82.4499 101.403 83.6277 101.19 83.9996C96.7758 86.4645 90.4267 89.6768 87.467 93.886C85.9992 95.9748 85.7173 100.214 83.197 102.132C74.9133 128.339 103.833 132.682 120.946 143.263C122.382 144.151 128.702 147.152 130.216 147.605C130.723 147.759 131.237 147.891 131.755 147.999C148.819 155.047 170.41 167.444 187.023 176.203C226.625 197.084 275.066 213.777 293.168 258.536C301.72 279.583 303.81 307.035 294.962 328.369C294.618 330.985 292.02 336.722 290.72 339.191C253.691 409.664 154.562 422.688 87.8128 390.778C52.0979 373.704 19.7201 343.757 6.98965 305.488C-9.19342 258.05 2.12351 258.151 47.2393 258.632C57.6171 258.743 69.5102 258.437 79.5484 260.602C81.5978 261.044 83.3722 265.929 83.9944 267.657C90.6343 287.498 100.604 301.302 118.059 313.004C143.593 328.028 175.787 331.122 203.25 317.777C212.129 313.462 216.873 306.718 219.617 297.406C218.67 291.407 217.963 288.367 215.007 283.079C214.685 282.914 214.855 283.028 214.534 282.742C201.809 271.458 185.59 264.411 170.501 256.734L105.259 223.826C86.6166 214.36 41.0842 192.816 28.6493 178.682C23.7062 175.496 13.4494 161.053 11.0686 155.675C-1.44462 133.81 -2.69242 103.008 6.20383 79.677C9.1917 65.9712 26.9457 42.7435 38.242 34.4021Z" fill="#1F432A"/>
<path d="M23.6202 284.639L23.3293 283.241C28.2408 281.26 53.8104 282.309 59.7751 283.613C57.8474 283.974 52.2882 284.429 51.4687 285.041C44.9031 285.226 38.3361 285.329 31.7678 285.349C42.1291 320.567 61.9029 344.501 94.3632 362.246C128.72 380.624 168.893 384.86 206.326 374.052C230.9 366.834 255.343 351.205 267.826 328.254C269.985 324.343 271.779 320.241 273.182 315.999L273.319 322.534C258.539 366.269 196.36 387.28 154.467 384.057C107.331 381.387 60.7775 357.238 37.2705 315.295C34.3005 309.997 24.9017 285.913 23.6202 284.639Z" fill="#173620"/>
<path d="M6.98965 305.488C-9.19342 258.05 2.12351 258.151 47.2393 258.632C57.6171 258.743 69.5102 258.438 79.5484 260.602C81.5978 261.044 83.3722 265.929 83.9944 267.657C90.6343 287.498 100.604 301.302 118.059 313.004C143.593 328.028 175.787 331.122 203.25 317.777C212.129 313.462 216.873 306.718 219.617 297.406C220.088 294.638 220.11 293.675 220.071 290.856C221.402 293.558 221.345 301.769 220.135 304.647C207.056 335.748 155.085 334.886 130.509 325.893C109.525 318.45 92.3861 302.929 82.9034 282.783C81.4693 279.678 76.0497 264.406 72.8494 264.177C52.7379 262.731 32.2333 264.424 12.0029 263.63C-9.36255 262.792 9.98165 299.187 6.98965 305.488Z" fill="#597A61"/>
<path d="M118.059 313.004C115.446 317.93 110.275 311.988 107.329 309.95C89.8155 297.837 85.3446 279.07 75.5931 261.896L75.9479 261.375C78.7316 262.923 78.3727 265.528 80.8498 267.704C82.3128 267.302 82.4599 267.394 83.9944 267.657C90.6342 287.498 100.604 301.302 118.059 313.004Z" fill="#274930"/>
<path d="M294.962 328.37C293.126 326.805 293.944 324.859 294.632 322.619C304.876 289.318 293.381 250.117 267.352 226.407C247.861 208.648 215.102 193.97 190.274 181.313L116.176 143.315C99.6158 134.721 71.3334 125.58 81.9752 101.765L83.1969 102.132C74.9132 128.34 103.833 132.682 120.945 143.263C122.382 144.151 128.702 147.153 130.216 147.606C130.723 147.76 131.237 147.891 131.755 147.999C148.819 155.047 170.41 167.444 187.023 176.203C226.625 197.084 275.066 213.777 293.168 258.537C301.72 279.583 303.81 307.035 294.962 328.37Z" fill="#86A08A"/>
<path d="M23.6203 284.639C24.9018 285.913 34.3006 309.997 37.2706 315.295C60.7776 357.238 107.331 381.387 154.467 384.057C196.36 387.28 258.539 366.269 273.32 322.534C275.87 317.078 276.956 305.563 278.441 298.919C278.82 300.084 278.723 301.135 278.648 302.356C277.575 322.886 267.359 341.802 251.996 355.161C195.547 404.313 101.61 393.883 52.1171 339.634C41.705 328.222 33.5746 314.594 27.8518 300.284C26.4789 296.849 23.4223 288.075 23.6203 284.639Z" fill="#597A61"/>
<path d="M41.9566 58.9238C42.631 60.8002 42.5506 61.2595 41.9525 63.1523L42.7871 64.8609C45.9688 65.4927 47.8883 60.4777 50.6095 60.2522L50.9525 60.5327C35.6117 78.0984 27.4497 95.5692 29.198 119.223C31.6723 152.7 52.5634 168.039 79.9073 182.228L81.4693 185.689C40.0722 166.601 12.0558 135.349 27.2345 87.4684C30.5193 81.5802 38.4545 63.1832 41.9566 58.9238Z" fill="#13341D"/>
<path d="M81.4692 185.689C104.629 196.413 127.835 209.535 150.795 220.911C174.811 232.81 199.617 244.711 222.122 259.155C228.06 262.966 232.95 269.165 237.002 274.837C241.753 280.791 244.294 308.653 238.407 312.805L237.559 312.538C240.54 307.515 241.034 295.295 240.242 289.692C236.223 261.26 200.246 248.099 177.625 236.756L109.233 201.925C69.3857 181.917 20.8613 164.788 21.093 112.032C21.1219 105.438 23.4896 92.7214 27.2344 87.4685C12.0558 135.349 40.0721 166.601 81.4692 185.689Z" fill="#597A61"/>
<path d="M28.6493 178.682C31.3003 179.593 33.8922 181.51 35.195 181.684L34.218 181.023C39.5874 184.433 45.2765 188.751 50.6912 191.791C89.0668 213.333 128.914 232.204 168.074 252.26C182.029 259.408 196.381 265.714 209.612 274.154C213.035 276.328 211.835 277.148 213.899 280.072C215.044 281.694 215.273 281.135 215.006 283.079C214.685 282.914 214.855 283.028 214.533 282.743C201.809 271.458 185.59 264.411 170.5 256.734L105.259 223.826C86.6165 214.36 41.0841 192.816 28.6493 178.682Z" fill="#091D0E"/>
<path d="M111.062 164.457C115.804 163.841 115.433 167.183 117.778 164.869C142.885 177.486 167.923 190.239 192.891 203.128C198.971 206.227 203.578 208.484 211.137 212.398C232.503 223.463 256.435 235.137 268.913 256.954C269.002 257.102 269.119 257.808 269.167 258.015C266.637 256.982 257.942 240.559 254.217 241.443C260.835 248.766 271.656 260.194 271.972 270.752C256.967 235.123 227.188 224.095 194.836 207.511L137.101 178.039C133.198 176.006 113.293 166.416 111.062 164.457Z" fill="#091D0E"/>
<path d="M71.8683 141.759C75.6722 141.971 74.3687 140.26 77.5257 142.59C89.3129 151.291 106.054 156.967 117.778 164.869C115.433 167.183 115.804 163.841 111.062 164.457C103.252 161.371 76.7158 147.776 71.8683 141.759Z" fill="#132E1A"/>
<path d="M6.20379 79.677C7.41104 83.1608 5.28323 87.9188 4.39361 91.9788C1.30879 106.062 2.30154 120.817 5.15811 134.842C6.20448 139.982 12.1651 152.603 11.0685 155.675C-1.44465 133.81 -2.69246 103.008 6.20379 79.677Z" fill="#597A61"/>
<path d="M46.252 28.406C59.1461 18.0845 73.1463 13.0942 88.4982 7.65972C117.017 -2.43635 166.34 -1.30395 193.429 12.6699C194.197 14.0169 194.23 13.9385 194.115 15.4532C194.373 24.0339 194.46 32.6187 194.377 41.2035C181.359 35.8853 168.369 31.2773 154.52 29.2538C122.232 24.5365 86.466 32.5637 60.4173 52.4904C57.8302 54.4692 53.2955 59.0401 50.9525 60.5328L50.6094 60.2523C47.8883 60.4778 45.9688 65.4928 42.787 64.8609L41.9524 63.1524C42.5505 61.2595 42.6309 60.8002 41.9565 58.9239C47.2461 53.1649 52.5935 48.7439 58.7439 43.9778C48.7944 46.5884 52.357 47.9553 43.2346 39.5259C40.1243 36.6519 39.2856 38.0153 36.5569 37.9342C37.1963 37.0204 37.782 35.481 38.242 34.4022C41.4175 31.445 42.5285 30.653 46.252 28.406Z" fill="#597A61"/>
<path d="M194.115 15.4531C194.373 24.0338 194.46 32.6186 194.377 41.2035C181.359 35.8852 168.369 31.2772 154.52 29.2538C122.232 24.5364 86.466 32.5636 60.4173 52.4904C57.8302 54.4692 53.2955 59.04 50.9525 60.5327L50.6094 60.2522C47.8883 60.4777 45.9688 65.4928 42.787 64.8609L41.9524 63.1523C42.5505 61.2595 42.6309 60.8002 41.9565 58.9239C47.2461 53.1649 52.5935 48.7439 58.7439 43.9778C97.0514 20.3286 140.251 15.0303 182.717 30.9939C186.549 32.4344 189.698 33.6197 192.98 36.1774C192.899 31.4622 192.307 19.5241 194.115 15.4531Z" fill="#132E1A"/>
<path d="M46.2521 28.406C59.1461 18.0845 73.1464 13.0942 88.4982 7.65972C117.017 -2.43635 166.34 -1.30395 193.429 12.6699L192.148 14.0251C189.472 13.7783 186.112 12.2815 183.516 11.389C140.782 -3.28547 94.3104 2.49343 54.9579 24.005C52.0277 25.607 49.3761 27.1932 46.6432 29.1149L46.2521 28.406Z" fill="#86A08A"/>
</svg>
